<svg width="32" height="32" viewBox="0 0 32 32" fill="none" xmlns="http://www.w3.org/2000/svg">
<g clip-path="url(#clip0_1_411)">
<path d="M17.2687 13.5697C17.6937 13.0447 18.0063 12.5509 18.4188 12.1322C19.1938 11.3384 20.0937 10.7759 21.1437 10.4197C22.3062 10.0259 23.5063 9.96969 24.6938 10.0884C26.6188 10.2697 28.3 11.0197 29.6063 12.4884C30.2188 13.1759 30.675 13.9634 31.0063 14.8197C31.2625 15.4884 31.4625 16.1634 31.5812 16.8697C31.6812 17.4759 31.8062 18.0822 31.8062 18.7009C31.8125 22.9822 31.8125 27.2634 31.8188 31.5447C31.8188 31.7572 31.7687 31.8259 31.55 31.8259C29.5938 31.8197 27.6312 31.8134 25.675 31.8259C25.3937 31.8259 25.3563 31.7259 25.3563 31.4822C25.3625 27.7447 25.3625 24.0009 25.3625 20.2634C25.3625 19.5759 25.3187 18.8822 25.1187 18.2322C24.7812 17.1322 24.1 16.3322 22.9813 15.9259C22.0438 15.5884 21.0938 15.5259 20.1375 15.7697C19.0813 16.0384 18.3375 16.7322 17.8125 17.6697C17.5188 18.1947 17.4 18.7447 17.3375 19.3447C17.2937 19.8009 17.2812 20.2509 17.2812 20.7072C17.275 24.2884 17.275 27.8759 17.2875 31.4572C17.2875 31.7634 17.2063 31.8322 16.9125 31.8259C15.0188 31.8134 13.1188 31.8072 11.225 31.8259C10.8875 31.8322 10.8438 31.7197 10.8438 31.4259C10.8563 24.8197 10.8562 18.2197 10.8562 11.6134C10.8562 10.8322 10.85 10.8322 11.6313 10.8322C13.4125 10.8322 15.1938 10.8384 16.975 10.8259C17.225 10.8259 17.2875 10.9009 17.2812 11.1447C17.2625 11.9197 17.2687 12.6947 17.2687 13.5697Z" fill="#A6A6A6"/>
<path d="M0.331201 21.4062C0.331201 18.05 0.337451 14.7 0.324951 11.3438C0.324951 11.0625 0.393701 10.9688 0.687451 10.9688C2.61245 10.9813 4.5437 10.9813 6.4687 10.9688C6.7562 10.9688 6.82495 11.0625 6.82495 11.3438C6.8187 18.0375 6.8187 24.7375 6.82495 31.4312C6.82495 31.725 6.76245 31.8188 6.44995 31.8125C4.52495 31.8 2.5937 31.8 0.668701 31.8125C0.393701 31.8125 0.324951 31.7375 0.324951 31.4625C0.337451 28.1125 0.331201 24.7625 0.331201 21.4062Z" fill="#A6A6A6"/>
<path d="M3.49371 0.294212C5.57496 0.225462 6.79996 1.76296 6.80621 3.58171C6.80621 5.45046 5.48746 6.83796 3.45621 6.84421C1.48746 6.85046 0.168715 5.48796 0.156215 3.55671C0.143715 1.72546 1.48121 0.231712 3.49371 0.294212Z" fill="#A6A6A6"/>
</g>
<defs>
<clipPath id="clip0_1_411">
<rect width="32" height="32" fill="white"/>
</clipPath>
</defs>
</svg>
