<svg width="49" height="37" viewBox="0 0 49 37" fill="none" xmlns="http://www.w3.org/2000/svg">
<path d="M46.2293 5.43798L49 0.639648L43.4586 0.639648L46.2293 5.43798Z" fill="white"/>
<path d="M37.5375 5.43798L40.3082 0.639648L34.7677 0.639648L37.5375 5.43798Z" fill="white"/>
<path d="M28.8458 5.43798L31.6157 0.639648L26.0751 0.639648L28.8458 5.43798Z" fill="white"/>
<path d="M20.1541 5.43798L22.9247 0.639648L17.3834 0.639648L20.1541 5.43798Z" fill="white"/>
<path d="M11.4631 5.43798L14.233 0.639648L8.69246 0.639648L11.4631 5.43798Z" fill="white"/>
<path d="M2.77053 5.43798L5.5412 0.639648L-0.000155926 0.639648L2.77053 5.43798Z" fill="white"/>
<path d="M41.8834 11.623L44.6541 6.82465L39.1136 6.82465L41.8834 11.623Z" fill="white"/>
<path d="M33.1925 11.623L35.9623 6.82465L30.4218 6.82465L33.1925 11.623Z" fill="white"/>
<path d="M24.4999 11.623L27.2706 6.82465L21.7293 6.82465L24.4999 11.623Z" fill="white"/>
<path d="M15.8082 11.623L18.5789 6.82465L13.0383 6.82465L15.8082 11.623Z" fill="white"/>
<path d="M7.11727 11.623L9.88794 6.82465L4.34658 6.82465L7.11727 11.623Z" fill="white"/>
<path d="M37.5372 17.8065L40.3079 13.0082L34.7674 13.0082L37.5372 17.8065Z" fill="white"/>
<path d="M28.8463 17.8065L31.6161 13.0082L26.0756 13.0082L28.8463 17.8065Z" fill="white"/>
<path d="M20.1538 17.8065L22.9244 13.0082L17.3831 13.0082L20.1538 17.8065Z" fill="white"/>
<path d="M11.4628 17.8065L14.2327 13.0082L8.69215 13.0082L11.4628 17.8065Z" fill="white"/>
<path d="M33.1921 23.9911L35.962 19.1919L30.4215 19.1919L33.1921 23.9911Z" fill="white"/>
<path d="M24.5004 23.9911L27.2711 19.1919L21.7297 19.1919L24.5004 23.9911Z" fill="white"/>
<path d="M15.8078 23.9911L18.5785 19.1919L13.038 19.1919L15.8078 23.9911Z" fill="white"/>
<path d="M28.8462 30.1752L31.6161 25.3769L26.0756 25.3769L28.8462 30.1752Z" fill="white"/>
<path d="M20.1545 30.1752L22.9252 25.3769L17.3838 25.3769L20.1545 30.1752Z" fill="white"/>
<path d="M24.4999 36.3596L27.2706 31.5605L21.7292 31.5605L24.4999 36.3596Z" fill="white"/>
</svg>
