<svg width="95" height="70" viewBox="0 0 95 70" fill="none" xmlns="http://www.w3.org/2000/svg">
<path d="M0.689212 4.22793C7.93905 29.5361 30.649 51.2786 61.4915 55.117C68.9013 56.0397 69.0101 54.095 59.6438 59.3872C55.1767 61.9109 54.157 62.6542 50.3346 64.2183C47.5077 65.3743 49.8368 70.551 51.9366 69.6921C59.2266 66.7109 66.5708 65.9418 91.6274 53.9084C93.6243 52.9497 94.3327 51.0786 94.0901 49.0879C93.006 40.1683 83.3197 45.0074 58.1958 23.0933C56.2985 21.4379 53.5164 22.2495 52.7774 24.588C51.9189 27.3006 52.8956 30.2979 55.0042 32.1974C60.1495 36.826 65.5932 40.8533 71.6294 44.5889C39.6116 45.909 14.9973 28.4193 4.42919 2.38427C3.2695 -0.465486 -0.31909 0.713794 0.689212 4.22793Z" fill="white"/>
</svg>
