<svg width="36" height="36" viewBox="0 0 36 36" fill="none" xmlns="http://www.w3.org/2000/svg">
<path d="M27 31.5H9C7.80653 31.5 6.66193 31.0259 5.81802 30.182C4.97411 29.3381 4.5 28.1935 4.5 27V9C4.5 7.80653 4.97411 6.66193 5.81802 5.81802C6.66193 4.97411 7.80653 4.5 9 4.5H15C15.3978 4.5 15.7794 4.65804 16.0607 4.93934C16.342 5.22064 16.5 5.60218 16.5 6C16.5 6.39782 16.342 6.77936 16.0607 7.06066C15.7794 7.34196 15.3978 7.5 15 7.5H9C8.60218 7.5 8.22064 7.65804 7.93934 7.93934C7.65804 8.22064 7.5 8.60218 7.5 9V27C7.5 27.3978 7.65804 27.7794 7.93934 28.0607C8.22064 28.342 8.60218 28.5 9 28.5H27C27.3978 28.5 27.7794 28.342 28.0607 28.0607C28.342 27.7794 28.5 27.3978 28.5 27V21C28.5 20.6022 28.658 20.2206 28.9393 19.9393C29.2206 19.658 29.6022 19.5 30 19.5C30.3978 19.5 30.7794 19.658 31.0607 19.9393C31.342 20.2206 31.5 20.6022 31.5 21V27C31.5 28.1935 31.0259 29.3381 30.182 30.182C29.3381 31.0259 28.1935 31.5 27 31.5Z" fill="white"/>
<path d="M31.5 6.07501V13.575C31.4985 13.8711 31.4094 14.1602 31.2439 14.4058C31.0784 14.6514 30.8439 14.8425 30.57 14.955C30.392 15.039 30.1968 15.0801 30 15.075C29.8026 15.0762 29.6069 15.0383 29.4241 14.9637C29.2414 14.889 29.0751 14.779 28.935 14.64L26.175 12L18.99 19.185C18.8505 19.3256 18.6846 19.4372 18.5019 19.5133C18.3191 19.5895 18.123 19.6287 17.925 19.6287C17.727 19.6287 17.5309 19.5895 17.3481 19.5133C17.1653 19.4372 16.9994 19.3256 16.86 19.185C16.7194 19.0456 16.6078 18.8797 16.5317 18.6969C16.4555 18.5141 16.4163 18.318 16.4163 18.12C16.4163 17.922 16.4555 17.7259 16.5317 17.5431C16.6078 17.3604 16.7194 17.1945 16.86 17.055L24 9.82501L21.36 7.14001C21.1443 6.93414 20.9948 6.66863 20.9307 6.37741C20.8665 6.08618 20.8907 5.78245 21 5.50501C21.1196 5.21135 21.3292 4.96315 21.5987 4.79606C21.8682 4.62896 22.1838 4.55158 22.5 4.57501H30C30.1241 4.55345 30.2509 4.55345 30.375 4.57501C30.4444 4.56165 30.5156 4.56165 30.585 4.57501C30.7649 4.64591 30.9284 4.75308 31.0652 4.88984C31.2019 5.02661 31.3091 5.19006 31.38 5.37001C31.3934 5.43937 31.3934 5.51065 31.38 5.58001C31.4583 5.73328 31.4995 5.90287 31.5 6.07501Z" fill="white"/>
</svg>
