<svg width="30" height="30" viewBox="0 0 30 30" fill="none" xmlns="http://www.w3.org/2000/svg">
<path d="M10.6231 23.1095C10.6815 23.46 11.0127 23.6968 11.3629 23.6384L12.2083 23.4974C12.5586 23.4389 12.7952 23.1075 12.7368 22.757L11.9356 17.946C11.8772 17.5955 11.546 17.3589 11.1957 17.4173L10.3503 17.5583C10.0001 17.6166 9.76346 17.9481 9.82184 18.2986L10.6231 23.1095Z" fill="white"/>
<path d="M17.263 22.757C17.2047 23.1075 17.4413 23.4389 17.7914 23.4974L18.6369 23.6384C18.9871 23.6968 19.3183 23.46 19.3767 23.1095L20.178 18.2979C20.2364 17.9474 19.9998 17.6159 19.6496 17.5575L18.8041 17.4165C18.454 17.3581 18.1227 17.5949 18.0644 17.9454L17.263 22.757Z" fill="white"/>
<path fill-rule="evenodd" clip-rule="evenodd" d="M22.754 9.62919H6.99553L13.0431 3.95532C13.3454 3.67181 13.3606 3.19682 13.0773 2.89441L12.6377 2.42507C12.3544 2.12266 11.8798 2.10734 11.5775 2.39085L4.10043 9.40591C4.03044 9.47158 3.97583 9.54751 3.93676 9.62919H2.14284C1.55111 9.62919 1.07141 10.1093 1.07141 10.7014V14.9904C1.07141 15.5825 1.55111 16.0626 2.14284 16.0626H2.5984L4.89216 26.8385C5.01859 27.4325 5.5428 27.8571 6.14965 27.8571H23.8485C24.4553 27.8571 24.9796 27.4325 25.106 26.8385L27.3997 16.0626H27.8571C28.4489 16.0626 28.9286 15.5825 28.9286 14.9904V10.7014C28.9286 10.1093 28.4489 9.62919 27.8571 9.62919H26.0097C25.9651 9.54282 25.9028 9.46373 25.8236 9.39758L17.333 2.31683C17.0148 2.05146 16.5419 2.09449 16.2767 2.41294L15.8652 2.90717C15.6 3.22561 15.6429 3.69889 15.9612 3.96426L22.754 9.62919ZM3.85713 11.7737C3.50209 11.7737 3.21427 12.0617 3.21427 12.417V13.2748C3.21427 13.6301 3.50209 13.9182 3.85713 13.9182H26.1428C26.4979 13.9182 26.7857 13.6301 26.7857 13.2748V12.417C26.7857 12.0617 26.4979 11.7737 26.1428 11.7737H3.85713ZM4.98239 16.9695C4.88299 16.5026 5.23882 16.0626 5.71594 16.0626H24.2822C24.7593 16.0626 25.1151 16.5026 25.0158 16.9695L23.2812 25.1185C23.2074 25.465 22.9017 25.7127 22.5477 25.7127H7.4505C7.0965 25.7127 6.79072 25.465 6.71696 25.1185L4.98239 16.9695Z" fill="white"/>
</svg>
