<svg width="36" height="36" viewBox="0 0 36 36" fill="none" xmlns="http://www.w3.org/2000/svg">
<path d="M13.5 3.59961C13.9971 3.59961 14.4 4.00256 14.4 4.49961V8.09961C14.4 8.59666 13.9971 8.99961 13.5 8.99961C13.0029 8.99961 12.6 8.59666 12.6 8.09961V4.49961C12.6 4.00256 13.0029 3.59961 13.5 3.59961ZM6.49964 6.49925C6.85112 6.14778 7.42097 6.14778 7.77244 6.49925L10.318 9.04484C10.6695 9.39631 10.6695 9.96616 10.318 10.3176C9.96655 10.6691 9.3967 10.6691 9.04523 10.3176L6.49964 7.77205C6.14817 7.42058 6.14817 6.85072 6.49964 6.49925ZM20.5004 6.49925C20.8517 6.85072 20.8517 7.42058 20.5004 7.77205L17.9548 10.3176C17.6033 10.6691 17.0335 10.6691 16.682 10.3176C16.3305 9.96616 16.3305 9.39631 16.682 9.04484L19.2276 6.49925C19.579 6.14778 20.1488 6.14778 20.5004 6.49925ZM3.6 13.4996C3.6 13.0026 4.00295 12.5996 4.5 12.5996H8.1C8.59705 12.5996 9 13.0026 9 13.4996C9 13.9967 8.59705 14.3996 8.1 14.3996H4.5C4.00295 14.3996 3.6 13.9967 3.6 13.4996ZM15.5523 13.1384C14.3799 12.1614 12.6 12.995 12.6 14.5211V30.9044C12.6 32.5663 14.6602 33.3405 15.7546 32.0897L19.4017 27.9216C19.9143 27.3357 20.655 26.9996 21.4335 26.9996H27.2142C28.8977 26.9996 29.6599 24.8945 28.3666 23.8169L15.5523 13.1384ZM14.4 30.9044V14.5211L27.2142 25.1996H21.4335C20.1359 25.1996 18.9014 25.7598 18.047 26.7363L14.4 30.9044Z" fill="white"/>
</svg>
