<svg width="32" height="32" viewBox="0 0 32 32" fill="none" xmlns="http://www.w3.org/2000/svg">
<path fill-rule="evenodd" clip-rule="evenodd" d="M16 32C24.8366 32 32 24.8366 32 16C32 7.16344 24.8366 0 16 0C7.16344 0 0 7.16344 0 16C0 24.8366 7.16344 32 16 32Z" fill="#8B0032"/>
<path fill-rule="evenodd" clip-rule="evenodd" d="M19.9373 11.8919C19.9373 14.0414 18.171 15.7838 15.9921 15.7838C13.8132 15.7838 12.0469 14.0414 12.0469 11.8919C12.0469 9.74248 13.8132 8 15.9921 8C18.171 8 19.9373 9.74248 19.9373 11.8919ZM8.84143 24.7838C8.84143 20.8879 12.0429 17.7298 15.9921 17.7298C19.9413 17.7298 23.1428 20.8879 23.1428 24.7838H8.84143Z" fill="white"/>
</svg>
